<svg id="Layer_1" data-name="Layer 1" xmlns="http://www.w3.org/2000/svg" viewBox="0 0 61 55.05"><title>icon-9</title><g id="group-29svg"><path id="path-1" d="M61,45.53A9.5,9.5,0,0,1,51.5,55H9.5A9.5,9.5,0,0,1,0,45.53V9.5A9.5,9.5,0,0,1,9.5,0h42A9.5,9.5,0,0,1,61,9.5Zm-3-36A6.5,6.5,0,0,0,51.5,3H9.5A6.5,6.5,0,0,0,3,9.5v36A6.5,6.5,0,0,0,9.5,52h42A6.5,6.5,0,0,0,58,45.53Z" transform="translate(0 0.01)" style="fill:#fff;fill-rule:evenodd"></path><path id="path-2" d="M59.07,17h-58C.25,17,0,16.34,0,15.51V9.39A9.19,9.19,0,0,1,9,0H51.34C56.35,0,61,4.3,61,9.39v6.12C61,16.34,59.9,17,59.07,17ZM3,14H58V9.39A6.78,6.78,0,0,0,51.34,3H9A6.23,6.23,0,0,0,3,9.39Z" transform="translate(0 0.01)" style="fill:#fff;fill-rule:evenodd"></path><path id="path-3" d="M12.53,8.89A1.7,1.7,0,1,1,10.84,7.2,1.7,1.7,0,0,1,12.53,8.89Z" transform="translate(0 0.01)" style="fill:#fff;fill-rule:evenodd"></path><path id="path-4" d="M18.19,8.89A1.7,1.7,0,1,1,16.5,7.2,1.7,1.7,0,0,1,18.19,8.89Z" transform="translate(0 0.01)" style="fill:#fff;fill-rule:evenodd"></path><path id="path-5" d="M23.85,8.89a1.7,1.7,0,1,1-1.7-1.69A1.7,1.7,0,0,1,23.85,8.89Z" transform="translate(0 0.01)" style="fill:#fff;fill-rule:evenodd"></path><path id="path-6" d="M41.5,54.54A1.5,1.5,0,0,1,40,53V16a1.5,1.5,0,1,1,3,0V53A1.5,1.5,0,0,1,41.5,54.54Z" transform="translate(0 0.01)" style="fill:#fff;fill-rule:evenodd"></path><path id="path-7" d="M54.57,26h-8a1.51,1.51,0,0,1,0-3h8a1.51,1.51,0,0,1,0,3Z" transform="translate(0 0.01)" style="fill:#fff;fill-rule:evenodd"></path><path id="path-8" d="M54.57,35h-8a1.5,1.5,0,0,1,0-3h8a1.5,1.5,0,0,1,0,3Z" transform="translate(0 0.01)" style="fill:#fff;fill-rule:evenodd"></path><path id="path-9" d="M54.57,44h-8a1.5,1.5,0,1,1,0-3h8a1.5,1.5,0,0,1,0,3Z" transform="translate(0 0.01)" style="fill:#fff;fill-rule:evenodd"></path></g></svg>