<svg id="Layer_1" data-name="Layer 1" xmlns="http://www.w3.org/2000/svg" viewBox="0 0 55.5 63"><title>icon-13</title><g id="group-54svg"><path id="path-2" d="M45.5,63H9.5A9.56,9.56,0,0,1,0,53.5V9.5A9.56,9.56,0,0,1,9.5,0h36A9.56,9.56,0,0,1,55,9.5v44A9.56,9.56,0,0,1,45.5,63ZM9.5,3A6.5,6.5,0,0,0,3,9.48v44A6.5,6.5,0,0,0,9.48,60h36A6.5,6.5,0,0,0,52,53.52h0V9.5A6.5,6.5,0,0,0,45.52,3Z" style="fill:#0a182d"></path><path id="path-3" d="M5,20H3a1.5,1.5,0,0,1,0-3H5a1.5,1.5,0,0,1,0,3Z" style="fill:#0a182d"></path><path id="path-4" d="M52,20H5a1.5,1.5,0,0,1,0-3H52a1.5,1.5,0,0,1,0,3Z" style="fill:#0a182d"></path><path id="path-5" d="M54,20H52a1.5,1.5,0,0,1,0-3h2a1.5,1.5,0,0,1,0,3Z" style="fill:#0a182d"></path><path id="path-6" d="M17.2,11.1a2.58,2.58,0,0,1-2.56,2.6h0A2.52,2.52,0,0,1,12,11.3v-.2a2.6,2.6,0,0,1,5.2,0Z" style="fill:#0a182d"></path><path id="path-7" d="M26.4,11.1a2.6,2.6,0,1,1-2.6-2.6A2.66,2.66,0,0,1,26.4,11.1Z" style="fill:#0a182d"></path><path id="path-8" d="M34.6,11.1A2.6,2.6,0,1,1,32,8.5h0A2.66,2.66,0,0,1,34.6,11.1Z" style="fill:#0a182d"></path><path id="path-9" d="M37.9,45.4a1.21,1.21,0,0,1-1.2-.7A1.47,1.47,0,0,1,37,42.65h.06l7.6-5.2-7.5-3.8a1.5,1.5,0,0,1,1.17-2.76l.13.06,7.7,4a2.64,2.64,0,0,1,1.5,2.3,2.71,2.71,0,0,1-1.1,2.5l-8,5.4A.78.78,0,0,1,37.9,45.4Z" style="fill:#0a182d"></path><path id="path-10" d="M20.7,49.4a1.12,1.12,0,0,1-.8-.3L12,43.7a2.9,2.9,0,0,1-1.2-2.5,3.08,3.08,0,0,1,1.5-2.3l7.7-4a1.5,1.5,0,0,1,1.3,2.7l-7.5,3.8,7.7,5.2a1.48,1.48,0,0,1,.44,2v0A1.21,1.21,0,0,1,20.7,49.4Z" style="fill:#0a182d"></path><path id="path-11" d="M26.4,52.3a.63.63,0,0,1-.4-.1,1.54,1.54,0,0,1-1-1.9l6.6-21.1a1.52,1.52,0,0,1,2.94.76v.14L27.9,51.2A1.49,1.49,0,0,1,26.4,52.3Z" style="fill:#0a182d"></path></g></svg>