<svg id="Layer_1" data-name="Layer 1" xmlns="http://www.w3.org/2000/svg" viewBox="0 0 59.01 50.05"><title>service-1</title><g id="group-15svg"><path id="path-1" d="M11.21,8.23a1.32,1.32,0,0,1-.48-.09,1.5,1.5,0,0,1-1-1.88v0a8.62,8.62,0,0,1,1.86-3.1A1.5,1.5,0,1,1,13.84,5.2h0a5.62,5.62,0,0,0-1.21,2A1.5,1.5,0,0,1,11.21,8.23Z" transform="translate(0 0.01)" style="fill:#fff;fill-rule:evenodd"></path><path id="path-2" d="M57,39.76h-.2a1.37,1.37,0,0,1-1.1-1.59.3.3,0,0,1,0-.1A8,8,0,0,0,56,36.78V32.63a1.5,1.5,0,1,1,3,0v4.15a11.84,11.84,0,0,1-.31,1.68A1.74,1.74,0,0,1,57,39.76Zm.51-11.26A1.52,1.52,0,0,1,56,27V21.36a1.5,1.5,0,0,1,3,0V27a1.51,1.51,0,0,1-1.5,1.51Zm0-11.27a1.5,1.5,0,0,1-1.5-1.5V10.09a1.5,1.5,0,1,1,3,0v5.64a1.5,1.5,0,0,1-1.5,1.5h0ZM55.94,6.15a1.49,1.49,0,0,1-1.29-.74,4.7,4.7,0,0,0-3.4-2.36A1.52,1.52,0,0,1,50,1.35,1.5,1.5,0,0,1,51.68.08a7.65,7.65,0,0,1,5.56,3.81A1.51,1.51,0,0,1,56.74,6l0,0A1.53,1.53,0,0,1,55.94,6.15ZM17.74,3.2A1.51,1.51,0,0,1,17.23.28a1.87,1.87,0,0,1,1-.28h5.14a1.5,1.5,0,0,1,0,3h-4.8a1.74,1.74,0,0,1-.7.19ZM45.84,3H40.22a1.5,1.5,0,0,1,0-3h5.62a1.5,1.5,0,0,1,0,3ZM34.58,3H29a1.5,1.5,0,0,1,0-3h5.62a1.5,1.5,0,0,1,0,3Z" transform="translate(0 0.01)" style="fill:#fff;fill-rule:evenodd"></path><path id="path-3" d="M51.6,45.61a1.51,1.51,0,1,1-.25-3,5.43,5.43,0,0,0,2.15-.89,1.5,1.5,0,0,1,1.72,2.46h0a8.38,8.38,0,0,1-3.35,1.39Z" transform="translate(0 0.01)" style="fill:#fff;fill-rule:evenodd"></path><path id="path-4" d="M48,40.53A9.5,9.5,0,0,1,38.51,50H9.5A9.5,9.5,0,0,1,0,40.54H0v-24A9.5,9.5,0,0,1,9.46,7h29a9.5,9.5,0,0,1,9.5,9.5v24Zm-3-24A6.5,6.5,0,0,0,38.54,10H9.5A6.5,6.5,0,0,0,3,16.49v24A6.5,6.5,0,0,0,9.49,47h29A6.5,6.5,0,0,0,45,40.53Z" transform="translate(0 0.01)" style="fill:#fff;fill-rule:evenodd"></path><path id="path-5" d="M46.07,19h-45C.25,19,0,18.34,0,17.51v-1C0,11.28,3.82,7,9,7H38.3A9.64,9.64,0,0,1,48,16.53v1C48,18.34,46.9,19,46.07,19ZM2.59,16h42a6.29,6.29,0,0,0-6.23-6H9A6.5,6.5,0,0,0,2.59,16Z" transform="translate(0 0.01)" style="fill:#fff;fill-rule:evenodd"></path><path id="path-6" d="M9.83,14.17a1.34,1.34,0,1,1-1.35-1.33h0A1.35,1.35,0,0,1,9.83,14.17Z" transform="translate(0 0.01)" style="fill:#fff;fill-rule:evenodd"></path><path id="path-7" d="M14.27,14.17a1.33,1.33,0,1,1-1.33-1.33h0A1.35,1.35,0,0,1,14.27,14.17Z" transform="translate(0 0.01)" style="fill:#fff;fill-rule:evenodd"></path><path id="path-8" d="M18.71,14.17a1.33,1.33,0,1,1-1.33-1.33h0A1.35,1.35,0,0,1,18.71,14.17Z" transform="translate(0 0.01)" style="fill:#fff;fill-rule:evenodd"></path></g></svg>