<svg id="Layer_1" data-name="Layer 1" xmlns="http://www.w3.org/2000/svg" viewBox="0 0 63 52"><title>icon-7</title><g id="group-45svg"><path id="path-1" d="M53.59,52H9.86C4.8,52,0,48.7,0,43.18V19.79a9.54,9.54,0,0,1,9.58-9.64,1.42,1.42,0,0,1,1.4,1.5,1.37,1.37,0,0,1-1.34,1.5A6.67,6.67,0,0,0,3,19.79V43.18C3,46.82,6.28,49,9.86,49H53.59C57.28,49,60,46.77,60,43.18V19.79a6.51,6.51,0,0,0-6.53-6.64,1.59,1.59,0,0,1-1.6-1.5,1.64,1.64,0,0,1,1.66-1.5A9.51,9.51,0,0,1,63,19.79V43.18C63,48.45,59,52,53.59,52Z" style="fill:#fff;fill-rule:evenodd"></path><path id="path-2" d="M31.69,34.51A9.61,9.61,0,0,1,27,33.31L2.45,18A1.5,1.5,0,0,1,4,15.46L28.55,30.72A6.61,6.61,0,0,0,35,30.65L58.9,15.47A1.5,1.5,0,1,1,60.51,18l-24,15.22A9.82,9.82,0,0,1,31.69,34.51Z" style="fill:#fff;fill-rule:evenodd"></path><path id="path-3" d="M22.75,12a1.53,1.53,0,0,1-1.08-.46,1.49,1.49,0,0,1,0-2.12l9-8.7a1.5,1.5,0,0,1,2.1,0l8.82,8.7a1.5,1.5,0,1,1-2.11,2.13L31.74,3.85l-7.95,7.69A1.5,1.5,0,0,1,22.75,12Z" style="fill:#fff;fill-rule:evenodd"></path><path id="path-4" d="M31.66,23h0a1.55,1.55,0,0,1-1.5-1.56l.09-19.79A1.65,1.65,0,0,1,31.75,0h0a1.61,1.61,0,0,1,1.49,1.63l-.09,19.76A1.6,1.6,0,0,1,31.66,23Z" style="fill:#fff;fill-rule:evenodd"></path></g></svg>