<svg id="Layer_1" data-name="Layer 1" xmlns="http://www.w3.org/2000/svg" viewBox="0 0 60.18 54.36"><title>icon-8</title><g id="group-21svg"><path id="path-1" d="M30.08,33a6.09,6.09,0,0,1-2.41-.5L3.62,22a6.05,6.05,0,0,1,0-11.09L27.67.48a6.11,6.11,0,0,1,4.82,0l24,10.46a6,6,0,0,1,0,11.09l-24,10.45A6.09,6.09,0,0,1,30.08,33Zm0-30a3,3,0,0,0-1.21.26l-24,10.45a3,3,0,0,0,0,5.58L28.87,29.73a3.08,3.08,0,0,0,2.42,0L55.34,19.27a3,3,0,0,0,0-5.58L31.29,3.24A3,3,0,0,0,30.08,3Z" transform="translate(0.01 0.01)" style="fill:#fff;fill-rule:evenodd"></path><path id="path-2" d="M30.08,54.35a6,6,0,0,1-2.4-.5L3.82,43.48a6,6,0,0,1,0-11A1.5,1.5,0,1,1,5,35.2a3,3,0,0,0,0,5.52L28.88,51.1a3,3,0,0,0,2.4,0L55.14,40.72a3,3,0,0,0,0-5.52,1.5,1.5,0,0,1,1.2-2.75,6,6,0,0,1,0,11L32.47,53.85A6,6,0,0,1,30.08,54.35Z" transform="translate(0.01 0.01)" style="fill:#fff;fill-rule:evenodd"></path><path id="path-3" d="M30.08,41A5.42,5.42,0,0,1,28,40.55L7.58,31.69a1.5,1.5,0,1,1,1.2-2.75l20.36,8.85a2.34,2.34,0,0,0,1.87,0l20.37-8.85a1.5,1.5,0,1,1,1.19,2.75L32.21,40.55A5.42,5.42,0,0,1,30.08,41Z" transform="translate(0.01 0.01)" style="fill:#fff;fill-rule:evenodd"></path></g></svg>