<svg id="Layer_1" data-name="Layer 1" xmlns="http://www.w3.org/2000/svg" viewBox="0 0 61 55"><title>icon-3</title><g id="group-8svg"><path id="path-3" d="M51.5,55H9.5A9.52,9.52,0,0,1,0,45.53V9.5A9.52,9.52,0,0,1,9.5,0h42A9.52,9.52,0,0,1,61,9.5v36A9.52,9.52,0,0,1,51.5,55ZM9.5,3A6.51,6.51,0,0,0,3,9.5v36A6.51,6.51,0,0,0,9.5,52h42A6.51,6.51,0,0,0,58,45.53V9.5A6.51,6.51,0,0,0,51.5,3Z" style="fill:#fff;fill-rule:evenodd"></path><path id="path-4" d="M59.5,17H1.5A1.51,1.51,0,0,1,0,15.51V9.3A9.49,9.49,0,0,1,9.44,0H51.77A9.26,9.26,0,0,1,61,9.3v6.21A1.51,1.51,0,0,1,59.5,17ZM3,14H58V9.3A6.34,6.34,0,0,0,51.77,3H9.44A6.54,6.54,0,0,0,3,9.3Z" style="fill:#fff;fill-rule:evenodd"></path><path id="path-5" d="M13,8.8a1.7,1.7,0,1,1-1.7-1.7h0A1.7,1.7,0,0,1,13,8.8Z" style="fill:#fff;fill-rule:evenodd"></path><path id="path-6" d="M18.62,8.8a1.7,1.7,0,1,1-1.7-1.7,1.7,1.7,0,0,1,1.7,1.7Z" style="fill:#fff;fill-rule:evenodd"></path><path id="path-7" d="M24.28,8.8a1.7,1.7,0,1,1-1.7-1.7,1.7,1.7,0,0,1,1.7,1.7Z" style="fill:#fff;fill-rule:evenodd"></path><path id="path-8" d="M27.61,39h-.06a1.57,1.57,0,0,1-1.08-.58L23.14,34.5a1.52,1.52,0,0,1,2.28-2l2.27,2.66,6.64-6.64a1.49,1.49,0,0,1,2.11,0h0a1.51,1.51,0,0,1,0,2.12l-7.78,7.84A1.54,1.54,0,0,1,27.61,39Z" style="fill:#fff;fill-rule:evenodd"></path></g></svg>