<svg id="Layer_1" data-name="Layer 1" xmlns="http://www.w3.org/2000/svg" viewBox="0 0 303.7 58.5"><title>logo--dark</title><path d="M101.6,30.1l10.7,15.1h-8.6l-6.9-10-2.9,3.1v6.9h-7V18.9h7v9.9l9-9.7h9.2Z"/><path d="M122.6,30.1l6.4-1c1.5-.2,2-1,2-1.9,0-1.9-1.4-3.4-4.4-3.4a4.67,4.67,0,0,0-5,4.2h0l-6.3-1.3c.4-4.1,4.2-8.6,11.2-8.6,8.3,0,11.3,4.7,11.3,9.9V40.8a28.18,28.18,0,0,0,.3,4.1h-6.5a16.12,16.12,0,0,1-.3-3.1,8.73,8.73,0,0,1-7.7,3.9c-5.6,0-9-3.8-9-7.8C114.8,33.3,118.2,30.7,122.6,30.1Zm8.4,4.5V33.4l-5.9.9c-1.8.3-3.2,1.3-3.2,3.3a3,3,0,0,0,3,3h.4C128.2,40.6,131,39.2,131,34.6Z"/><path d="M144,45.1V6.7h7V45.1Z"/><path d="M157.7,45.1V19h7.1V45.1Zm0-31.5V6.7h7.1v6.9Z"/><path d="M179.8,16.2v2.9h5.9v6h-5.9v20h-7.1v-20h-4.4v-6h4.4v-3c0-5.9,3.7-9.7,9.5-9.7a13.39,13.39,0,0,1,3.5.5v5.9a8.22,8.22,0,0,0-2.2-.3C181.9,12.6,179.8,13.2,179.8,16.2Z"/><path d="M214.2,32.1a13.7,13.7,0,1,1-27.4,0v0h0a13.7,13.7,0,0,1,27.4,0Zm-7,0c0-4.9-3.2-7.4-6.6-7.4s-6.6,2.5-6.6,7.4,3.2,7.4,6.6,7.4S207.1,37,207.2,32.1Z"/><path d="M234.7,26a14.78,14.78,0,0,0-2.1-.2c-3.6,0-6.7,1.8-6.7,7.4V45.1h-7V19h6.8v3.9c1.6-3.5,5.2-4.1,7.4-4.1.6,0,1.1.1,1.6.1Z"/><path d="M238.8,45.1V19h6.7v3.2c1.4-2.5,4.8-3.9,7.6-3.9,3.6,0,6.4,1.5,7.7,4.4a9,9,0,0,1,8.3-4.4c4.8,0,9.4,2.9,9.4,9.9V45.1h-6.8V29.6c0-2.8-1.4-4.9-4.6-4.9-3,0-4.8,2.3-4.8,5.1V45.1h-7V29.6c0-2.8-1.4-4.9-4.6-4.9s-4.8,2.3-4.8,5.1V45.1Z"/><path d="M288.7,36.5c.2,2.1,1.7,4,4.8,4,2.3,0,3.5-1.2,3.5-2.6,0-1.2-.8-2.1-2.8-2.5l-3.5-.8c-5-1.1-7.3-4.1-7.3-7.8,0-4.7,4.1-8.5,9.8-8.5,7.4,0,9.9,4.7,10.2,7.5l-5.9,1.3a4.05,4.05,0,0,0-4.3-3.5c-1.9,0-3.3,1.1-3.3,2.6,0,1.3,1,2.1,2.4,2.3l3.7.8c5.1,1.1,7.7,4.2,7.7,8,0,4.2-3.3,8.6-10.1,8.6-7.8,0-10.5-5.1-10.9-8.1Z"/><rect width="58.5" height="58.5" style="fill:#0a182d"/><path d="M31.79,26.78,45.36,45.93H34.45L25.7,33.25,22,37.18v8.75H13.14V12.57H22V25.13L33.44,12.82H45.11Z" style="fill:#fcfcfc"/></svg>