<svg id="Layer_1" data-name="Layer 1" xmlns="http://www.w3.org/2000/svg" viewBox="0 0 63 61"><title>icon-12</title><g id="group-4svg"><path id="path-1" d="M49,51.54A9.5,9.5,0,0,1,39.5,61H9.5A9.5,9.5,0,0,1,0,51.54v-35A9.5,9.5,0,0,1,9.47,7h30a9.5,9.5,0,0,1,9.5,9.5Zm-3-35A6.5,6.5,0,0,0,39.53,10H9.5A6.5,6.5,0,0,0,3,16.51v35A6.5,6.5,0,0,0,9.5,58h30A6.5,6.5,0,0,0,46,51.54Z" transform="translate(0 -0.01)" style="fill:#fff;fill-rule:evenodd"></path><path id="path-2" d="M45.57,23h-43a1.5,1.5,0,0,1,0-3h43a1.5,1.5,0,0,1,0,3Z" transform="translate(0 -0.01)" style="fill:#fff;fill-rule:evenodd"></path><path id="path-3" d="M60.57,16h-13a1.5,1.5,0,1,1,0-3h13a1.5,1.5,0,0,1,0,3Z" transform="translate(0 -0.01)" style="fill:#fff;fill-rule:evenodd"></path><path id="path-4" d="M11.63,15.44A1.67,1.67,0,1,1,10,13.77h0A1.66,1.66,0,0,1,11.63,15.44Z" transform="translate(0 -0.01)" style="fill:#fff;fill-rule:evenodd"></path><path id="path-5" d="M17.18,15.44a1.67,1.67,0,1,1,0-.26A1.13,1.13,0,0,1,17.18,15.44Z" transform="translate(0 -0.01)" style="fill:#fff;fill-rule:evenodd"></path><path id="path-6" d="M22.74,15.44a1.67,1.67,0,1,1-1.67-1.67h0a1.66,1.66,0,0,1,1.66,1.66Z" transform="translate(0 -0.01)" style="fill:#fff;fill-rule:evenodd"></path><path id="path-7" d="M52.56,54H46.72a1.5,1.5,0,0,1-1.5-1.5c0-.34.32-.65.52-.9,0-.15.26-.36.26-.62V17.66A8,8,0,0,0,38.11,10H16.18A1.51,1.51,0,0,1,15,9.43a1.44,1.44,0,0,1-.27-1.28A10.46,10.46,0,0,1,24.78,0H52.56C58.08,0,63,4.93,63,11V44.35C63,50,58.36,54,52.56,54ZM49,51h3.56C56.75,51,60,48.35,60,44.35V11c0-3.86-3.25-8-7.44-8H24.78a7.36,7.36,0,0,0-6.44,4H38.11C43.78,7,49,11.89,49,17.66Z" transform="translate(0 -0.01)" style="fill:#fff;fill-rule:evenodd"></path></g></svg>
