<svg id="Layer_1" data-name="Layer 1" xmlns="http://www.w3.org/2000/svg" viewBox="0 0 60.21 54.37"><title>icon-11</title><g id="group-21svg"><path id="path-1" d="M30.09,33a6,6,0,0,1-2.41-.5L3.63,22a6,6,0,0,1,0-11.09L27.68.49a6.11,6.11,0,0,1,4.82,0L56.5,11A6,6,0,0,1,56.5,22l-24,10.45A6.07,6.07,0,0,1,30.09,33Zm0-30a3,3,0,0,0-1.21.26l-24,10.45a3,3,0,0,0,0,5.58l24,10.44a3.08,3.08,0,0,0,2.42,0L55.35,19.28a3,3,0,0,0,0-5.58L31.3,3.25A3.11,3.11,0,0,0,30.09,3Z" transform="translate(0 0.01)" style="fill:#0a182d;fill-rule:evenodd"></path><path id="path-2" d="M30.09,54.36a6,6,0,0,1-2.4-.5L3.83,43.49a6,6,0,0,1,0-11A1.5,1.5,0,0,1,5.43,35a1.57,1.57,0,0,1-.42.18,3,3,0,0,0,0,5.52L28.89,51.11a3,3,0,0,0,2.4,0L55.15,40.73a3,3,0,0,0,0-5.52,1.5,1.5,0,1,1,1.2-2.75,6,6,0,0,1,0,11L32.48,53.86A6,6,0,0,1,30.09,54.36Z" transform="translate(0 0.01)" style="fill:#0a182d;fill-rule:evenodd"></path><path id="path-3" d="M30.09,41A5.33,5.33,0,0,1,28,40.56L7.59,31.7A1.5,1.5,0,1,1,8.79,29h0L29.15,37.8a2.34,2.34,0,0,0,1.87,0L51.39,29a1.5,1.5,0,1,1,1.32,2.69l-.13.06L32.22,40.56A5.39,5.39,0,0,1,30.09,41Z" transform="translate(0 0.01)" style="fill:#0a182d;fill-rule:evenodd"></path></g></svg>