<svg id="Layer_1" data-name="Layer 1" xmlns="http://www.w3.org/2000/svg" viewBox="0 0 54 63"><title>service-6</title><g id="group-59svg"><path id="path-2" d="M44.5,63H9.5A9.56,9.56,0,0,1,0,53.5V9.5A9.56,9.56,0,0,1,9.5,0h35A9.56,9.56,0,0,1,54,9.5v44A9.56,9.56,0,0,1,44.5,63ZM9.5,3A6.5,6.5,0,0,0,3,9.48v44A6.5,6.5,0,0,0,9.48,60h35A6.5,6.5,0,0,0,51,53.52V9.5A6.5,6.5,0,0,0,44.52,3H9.5Z" style="fill:#fff"></path><path id="path-3" d="M46,14H10a1.5,1.5,0,0,1,0-3H46a1.5,1.5,0,0,1,0,3Z" style="fill:#fff"></path><path id="path-4" d="M46,22H10a1.5,1.5,0,0,1,0-3H46a1.5,1.5,0,0,1,0,3Z" style="fill:#fff"></path><path id="path-5" d="M19.5,34.5a6,6,0,0,1,1-3.2,8.43,8.43,0,0,1,2.9-2.7,9.28,9.28,0,0,1,4.5-1.1,9.37,9.37,0,0,1,4.2.9,6.65,6.65,0,0,1,2.8,2.4,5.63,5.63,0,0,1,1,3.3,5.07,5.07,0,0,1-.6,2.5,6.29,6.29,0,0,1-1.4,1.8c-.5.5-1.5,1.4-2.8,2.6a3.84,3.84,0,0,0-.9.9c-.2.3-.4.5-.5.7l-.3.6a5.11,5.11,0,0,0-.3,1.1,1.88,1.88,0,0,1-2,1.7,1.66,1.66,0,0,1-1.4-.6,2.21,2.21,0,0,1-.6-1.7,6.12,6.12,0,0,1,.4-2.4,7.56,7.56,0,0,1,1.1-1.8c.5-.5,1.1-1.1,1.9-1.8s1.2-1.1,1.5-1.4a4.37,4.37,0,0,0,.8-1.1,2.79,2.79,0,0,0,.3-1.3,2.7,2.7,0,0,0-1-2.2,3.68,3.68,0,0,0-2.5-.9,3.66,3.66,0,0,0-2.7.9,6.85,6.85,0,0,0-1.5,2.7c-.4,1.2-1.1,1.9-2.1,1.9a2.12,2.12,0,0,1-1.6-.7A5.91,5.91,0,0,1,19.5,34.5Zm8.1,18.1a2.42,2.42,0,0,1-1.8-.7,2.19,2.19,0,0,1-.8-1.8,2.5,2.5,0,1,1,5,0,2.11,2.11,0,0,1-.7,1.8A2.32,2.32,0,0,1,27.6,52.6Z" style="fill:#fff"></path></g></svg>